<?xml version="1.0" encoding="UTF-8" standalone="no"?>
<!DOCTYPE svg PUBLIC "-//W3C//DTD SVG 1.1//EN"
 "http://www.w3.org/Graphics/SVG/1.1/DTD/svg11.dtd">
<!-- Generated by graphviz version 2.43.0 (0)
 -->
<!-- Title: %3 Pages: 1 -->
<svg width="606pt" height="481pt"
 viewBox="0.00 0.00 606.00 481.00" xmlns="http://www.w3.org/2000/svg" xmlns:xlink="http://www.w3.org/1999/xlink">
<g id="graph0" class="graph" transform="scale(1 1) rotate(0) translate(4 477)">
<title>%3</title>
<polygon fill="white" stroke="transparent" points="-4,4 -4,-477 602,-477 602,4 -4,4"/>
<!-- 0 -->
<g id="node1" class="node">
<title>0</title>
<polygon fill="aqua" stroke="black" points="382,-113 216,-113 216,0 382,0 382,-113"/>
<image xlink:href="icon_router.png" width="166px" height="113px" preserveAspectRatio="xMinYMin meet" x="216" y="-113"/>
<text text-anchor="middle" x="299" y="-52.8" font-family="Times,serif" font-size="14.00">0</text>
</g>
<!-- 1 -->
<g id="node2" class="node">
<title>1</title>
<polygon fill="aqua" stroke="transparent" points="238,-257 72,-257 72,-144 238,-144 238,-257"/>
<image xlink:href="icon_router.png" width="166px" height="113px" preserveAspectRatio="xMinYMin meet" x="72" y="-257"/>
<text text-anchor="middle" x="155" y="-196.8" font-family="Times,serif" font-size="14.00">1</text>
</g>
<!-- 0&#45;&gt;1 -->
<g id="edge1" class="edge">
<title>0&#45;&gt;1</title>
<path fill="none" stroke="red" d="M242.09,-113.41C234.66,-120.84 227,-128.5 219.46,-136.04"/>
<polygon fill="red" stroke="red" points="216.57,-133.98 211.97,-143.53 221.52,-138.93 216.57,-133.98"/>
</g>
<!-- 4 -->
<g id="node4" class="node">
<title>4</title>
<polygon fill="aqua" stroke="transparent" points="598,-473 432,-473 432,-360 598,-360 598,-473"/>
<image xlink:href="icon_router.png" width="166px" height="113px" preserveAspectRatio="xMinYMin meet" x="432" y="-473"/>
<text text-anchor="middle" x="515" y="-412.8" font-family="Times,serif" font-size="14.00">4</text>
</g>
<!-- 0&#45;&gt;4 -->
<g id="edge6" class="edge">
<title>0&#45;&gt;4</title>
<path fill="none" stroke="red" d="M332.99,-113.15C371.7,-177.67 434.87,-282.94 475.68,-350.96"/>
<polygon fill="red" stroke="red" points="472.89,-353.11 481.03,-359.89 478.89,-349.51 472.89,-353.11"/>
<text text-anchor="middle" x="397.83" y="-238.05" font-family="Times,serif" font-size="20.00">4</text>
</g>
<!-- 1&#45;&gt;4 -->
<g id="edge5" class="edge">
<title>1&#45;&gt;4</title>
<path fill="none" stroke="red" d="M238.21,-257.26C293.39,-291.73 365.83,-335.22 422.77,-368.06"/>
<polygon fill="red" stroke="red" points="421.35,-371.29 431.77,-373.24 424.84,-365.22 421.35,-371.29"/>
</g>
<!-- 2 -->
<g id="node3" class="node">
<title>2</title>
<polygon fill="aqua" stroke="transparent" points="166,-401 0,-401 0,-288 166,-288 166,-401"/>
<image xlink:href="icon_router.png" width="166px" height="113px" preserveAspectRatio="xMinYMin meet" x="0" y="-401"/>
<text text-anchor="middle" x="83" y="-340.8" font-family="Times,serif" font-size="14.00">2</text>
</g>
<!-- 2&#45;&gt;4 -->
<g id="edge2" class="edge">
<title>2&#45;&gt;4</title>
<path fill="none" stroke="red" d="M166.04,-358.34C239.22,-370.54 345.73,-388.29 421.8,-400.97"/>
<polygon fill="red" stroke="red" points="421.42,-404.45 431.86,-402.64 422.57,-397.55 421.42,-404.45"/>
</g>
<!-- 4&#45;&gt;1 -->
<g id="edge4" class="edge">
<title>4&#45;&gt;1</title>
<path fill="none" stroke="red" d="M431.79,-359.74C376.61,-325.27 304.17,-281.78 247.23,-248.94"/>
<polygon fill="red" stroke="red" points="248.65,-245.71 238.23,-243.76 245.16,-251.78 248.65,-245.71"/>
<text text-anchor="middle" x="319.51" y="-310.34" font-family="Times,serif" font-size="20.00">test</text>
</g>
<!-- 3 -->
<g id="node5" class="node">
<title>3</title>
<polygon fill="aqua" stroke="transparent" points="598,-257 432,-257 432,-144 598,-144 598,-257"/>
<image xlink:href="icon_router.png" width="166px" height="113px" preserveAspectRatio="xMinYMin meet" x="432" y="-257"/>
<text text-anchor="middle" x="515" y="-196.8" font-family="Times,serif" font-size="14.00">3</text>
</g>
<!-- 3&#45;&gt;2 -->
<g id="edge3" class="edge">
<title>3&#45;&gt;2</title>
<path fill="none" stroke="red" d="M431.96,-228.18C358.63,-252.62 251.83,-288.22 175.73,-313.59"/>
<polygon fill="red" stroke="red" points="174.52,-310.3 166.14,-316.79 176.73,-316.95 174.52,-310.3"/>
</g>
</g>
</svg>
